<svg height="512" viewBox="0 0 512 512" width="512" xmlns="http://www.w3.org/2000/svg"><g id="Fruits_Basket" data-name="Fruits Basket"><g id="Flat"><path d="m160.785 303.556c-12.256-25.58-13.181-54.414-2.676-83.385a134.424 134.424 0 0 1 19.7-36.249c6.68-8.174 18.982 2 12.388 10.127a120.679 120.679 0 0 0 -17.216 32.056c-8.951 25.025-8.2 48.756 2.237 70.537 4.389 9.167-9.994 16.178-14.433 6.914z" fill="#49ad4d"/><path d="m111.351 249.313c-20.05-15.036-25.807-50.856-26.042-52.374a8.094 8.094 0 0 1 6.868-9.158c1.522-.2 37.522-4.705 57.571 10.33 22.843 17.13 23.425 37.657 13.87 50.4-12.39 16.523-34.975 13.77-52.267.802z" fill="#81c784"/><path d="m102.21 239.944a46.1 46.1 0 0 0 9.141 9.369c17.292 12.968 39.877 15.721 52.267-.8 7.576-10.1 8.766-25.1-2.447-39.418a75.871 75.871 0 0 1 -58.961 30.849z" fill="#66bb6a"/><circle cx="108" cy="212" fill="#c8e6c9" r="12"/><circle cx="136" cy="216" fill="#c8e6c9" r="8"/><path d="m272 176c0-38.825-29.8-69.583-58.823-80.515-9.884-3.722-3.724-18.48 5.632-14.975a124.047 124.047 0 0 1 34.459 21.469c22.722 19.882 34.732 45.478 34.732 74.021 0 10.185-16 10.278-16 0z" fill="#66bb6a"/><path d="m276.477 176.96c-9.556-12.743-8.314-33.765 16-52 21.309-15.98 58.674-12.747 60.253-12.6a8.1 8.1 0 0 1 7.121 9.5c-.3 1.557-7.668 38.331-28.976 54.31-18.253 13.682-41.064 18.573-54.398.79z" fill="#81c784"/><path d="m292.452 400h-24.9a75.634 75.634 0 0 1 -75.552-75.548c0-25.981 17.248-50.276 32-70.874v-29.578a56 56 0 0 1 112 0v29.578c13.773 18.326 32 46.536 32 70.874a75.634 75.634 0 0 1 -75.548 75.548z" fill="#f8e868"/><circle cx="256" cy="208" fill="#fcf5be" r="16"/><circle cx="304" cy="136" fill="#c8e6c9" r="8"/><circle cx="280" cy="232" fill="#fcf5be" r="8"/><path d="m336 253.578v-29.578a55.709 55.709 0 0 0 -3.759-20.135c-21.045 44.13-69.3 72.793-120.568 67.509-10.607 16.296-19.673 34.243-19.673 53.078a75.634 75.634 0 0 0 75.548 75.548h24.9a75.634 75.634 0 0 0 75.552-75.548c0-24.338-18.227-52.552-32-70.874z" fill="#f6e23d"/><path d="m270.933 160.01a27.793 27.793 0 0 0 5.544 16.95c13.334 17.783 36.145 12.892 54.4-.8 13.144-9.857 20.982-27.627 25.13-40.162-20.007 24.002-52.007 32.002-85.074 24.012z" fill="#66bb6a"/><path d="m80 355.556c0-48.275 43.171-97.68 88-65.671 42.7-30.633 88 13.747 88 65.671 0 48.151-43.159 98.036-87.968 66.772-45.701 32.372-88.032-18.954-88.032-66.772z" fill="#ea6049"/><path d="m401.14 227.884c15.679-26.13-6.779-39.909-19.691-44.3-9.991-3.4-4.383-18.335 5.081-15.172 1.067.357 26.218 8.951 33.956 29.868 4.322 11.683 2.429 24.413-5.626 37.838-5.16 8.595-19.092.718-13.72-8.234z" fill="#81c784"/><path d="m420.486 198.278a38.628 38.628 0 0 0 -4.9-9.132 31.921 31.921 0 0 1 -9.437 17.94c1.04 5.809-.154 12.711-5.006 20.8-5.372 8.951 8.562 16.829 13.72 8.232 8.052-13.427 9.945-26.157 5.623-37.84z" fill="#66bb6a"/><circle cx="396" cy="260" fill="#f09b73" r="36"/><path d="m423.032 236.263a35.967 35.967 0 0 1 -62.064 15.474 36 36 0 1 0 62.064-15.474z" fill="#e58b6c"/><circle cx="372" cy="276" fill="#f09b73" r="36"/><path d="m399.032 252.263a35.967 35.967 0 0 1 -62.064 15.474 36 36 0 1 0 62.064-15.474z" fill="#e58b6c"/><circle cx="388" cy="356" fill="#db7f5f" r="36"/><circle cx="396" cy="324" fill="#db7f5f" r="36"/><circle cx="364" cy="324" fill="#e58b6c" r="36"/><circle cx="332" cy="292" fill="#f09b73" r="36"/><path d="m350.776 261.3a35.976 35.976 0 0 1 -53.552 21.4 36 36 0 1 0 53.552-21.4z" fill="#e58b6c"/><circle cx="308" cy="372" fill="#db7f5f" r="36"/><circle cx="348" cy="364" fill="#db7f5f" r="36"/><circle cx="316" cy="332" fill="#f09b73" r="36"/><path d="m332.156 299.844c15.061 29.187-18.243 63.78-48.312 48.312a35.991 35.991 0 1 0 48.312-48.312z" fill="#e58b6c"/><circle cx="128" cy="312" fill="#f27c6d" r="16"/><circle cx="152" cy="336" fill="#f27c6d" r="8"/><path d="m223.733 288.547c-26.694 49.712-85.386 79.851-143.7 69.347 1.346 47.129 43.04 96.279 88 64.434 44.808 31.264 87.967-18.621 87.967-66.772 0-28.128-13.295-54.034-32.267-67.009z" fill="#de513e"/><path d="m496 376h-32v-136c0-105.551-96-208-207.9-208-112.1 0-208.1 102.1-208.1 208v136h-32v-136c0-132.954 107.881-240 240-240 130.219 0 240.624 107.588 240 240z" fill="#9c7b70"/><path d="m410.407 56.959c5.593 7.041 5.593 31.041-10.93 36.926 39.447 39.061 64.523 92.179 64.523 146.115v136h32v-136c.345-73.309-33.353-139-85.593-183.041z" fill="#876559"/><path d="m440 512h-368a56 56 0 0 1 -56-56v-56h480v56a56 56 0 0 1 -56 56z" fill="#a1887f"/><path d="m368 400c-24 64-80 104-138.292 112h210.292a56 56 0 0 0 56-56v-56z" fill="#9c7b70"/><path d="m463.134 456.429 32.866-42.256v-14.173h-9.245l-33.755 43.4-17.937-23.062 15.818-20.338h-20.269l-5.683 7.307-5.684-7.307h-20.268l15.817 20.337-17.937 23.063-17.937-23.064 15.817-20.336h-20.269l-5.683 7.306-5.685-7.306h-20.266l15.817 20.336-17.937 23.064-17.937-23.062 15.817-20.338h-20.268l-5.684 7.307-5.683-7.307h-20.268l15.817 20.337-17.937 23.063-17.936-23.061 15.817-20.339h-20.269l-5.683 7.307-5.683-7.307h-20.269l15.818 20.337-17.937 23.063-17.937-23.062 15.817-20.338h-20.269l-5.683 7.306-5.683-7.306h-20.269l15.817 20.337-17.936 23.063-17.937-23.061 15.817-20.339h-20.266l-5.683 7.306-5.686-7.306h-20.269l15.817 20.337-17.936 23.063-22.77-29.276 10.984-14.124h-20.27l-.849 1.092-.849-1.092h-20.269l10.98 14.122-17.1 21.991-28.088-36.113h-11.912v10.745l29.865 38.4-24.292 31.231a56.085 56.085 0 0 0 9.508 13.836l24.919-32.039 22.77 29.276-15.46 19.877a56.457 56.457 0 0 0 8.69.674h11.055l5.85-7.521 5.849 7.521h20.27l-15.985-20.551 17.1-21.991 17.941 23.062-15.151 19.48h20.271l5.017-6.449 5.014 6.449h20.269l-15.151-19.48 17.937-23.061 17.936 23.062-15.15 19.479h20.269l5.016-6.449 5.016 6.449h20.269l-15.15-19.479 17.937-23.062 17.937 23.061-15.151 19.48h20.269l5.016-6.45 5.017 6.45h20.268l-15.15-19.479 17.937-23.063 17.936 23.062-15.151 19.48h20.269l5.017-6.45 5.016 6.45h20.269l-15.151-19.48 17.937-23.062 17.937 23.063-15.151 19.479h20.27l5.016-6.449 5.014 6.449h20.27l-15.15-19.479 17.937-23.063 17.937 23.062-15.15 19.48h20.268l5.017-6.45 5.016 6.45h10.055a56.283 56.283 0 0 0 9.568-.831l-14.5-18.649 17.932-23.062 22.932 29.485a56.317 56.317 0 0 0 10.828-12.138zm-374.229 21.99-22.77-29.276 17.1-21.991 22.77 29.276zm55.31 1.071-17.937-23.062 17.936-23.061 17.937 23.062zm56.142 0-17.937-23.061 17.937-23.062 17.937 23.062zm56.143 0-17.937-23.061 17.937-23.062 17.937 23.061zm56.143 0-17.937-23.062 17.937-23.061 17.936 23.061zm56.143 0-17.938-23.062 17.938-23.063 17.937 23.063zm56.143 0-17.937-23.062 17.937-23.062 17.937 23.062z" fill="#876559"/><rect fill="#bcaaa4" height="48" rx="8" width="512" y="368"/><path d="m504 368h-160c0 24-24 48-48.2 48h208.2a8 8 0 0 0 8-8v-32a8 8 0 0 0 -8-8z" fill="#a1887f"/><circle cx="36" cy="388" fill="#e2dbd5" r="12"/><circle cx="72" cy="392" fill="#e2dbd5" r="8"/><g fill="#f2bba5"><circle cx="368" cy="256" r="8"/><circle cx="304" cy="320" r="8"/><circle cx="320" cy="272" r="8"/><circle cx="400" cy="240" r="8"/></g><circle cx="148" cy="44" fill="#bcaaa4" r="12"/><circle cx="120" cy="64" fill="#bcaaa4" r="8"/><circle cx="332" cy="132" fill="#c8e6c9" r="12"/></g></g></svg>