<svg xmlns="http://www.w3.org/2000/svg" data-name="Layer 1" viewBox="0 0 32 40" x="0px" y="0px"><title>computer hardware smart phone tab</title><path d="M27.3174,27H4.6826A3.6871,3.6871,0,0,1,1,23.3174V8.6831A3.6873,3.6873,0,0,1,4.6826,5H27.3174A3.6873,3.6873,0,0,1,31,8.6831V23.3174A3.6871,3.6871,0,0,1,27.3174,27ZM4.6826,7A1.6847,1.6847,0,0,0,3,8.6831V23.3174A1.6846,1.6846,0,0,0,4.6826,25H27.3174A1.6846,1.6846,0,0,0,29,23.3174V8.6831A1.6847,1.6847,0,0,0,27.3174,7Z"/><path d="M30,21a1.0033,1.0033,0,0,1-.4473-.1055l-4-2A1,1,0,0,1,25,18V14a1,1,0,0,1,.5527-.8945l4-2A1,1,0,0,1,31,12v8a1.0006,1.0006,0,0,1-1,1Zm-3-3.6182,2,1V13.6182l-2,1Z"/><text x="0" y="47" fill="#000000" font-size="5px" font-weight="bold" font-family="'Helvetica Neue', Helvetica, Arial-Unicode, Arial, Sans-serif">Created by Misbahul Munir</text><text x="0" y="52" fill="#000000" font-size="5px" font-weight="bold" font-family="'Helvetica Neue', Helvetica, Arial-Unicode, Arial, Sans-serif">from the Noun Project</text></svg>